<svg width="1440" height="1440" viewBox="0 0 1440 1440" fill="none" xmlns="http://www.w3.org/2000/svg">
<rect width="1440" height="1440" fill="black"/>
<path d="M1023 428.333C1023 497.369 887.342 553.333 720 553.333C552.658 553.333 417 497.369 417 428.333M1023 428.333C1023 359.298 887.342 303.333 720 303.333C552.658 303.333 417 359.298 417 428.333M1023 428.333V1011.67C1023 1044.82 991.077 1076.61 934.253 1100.06C877.43 1123.5 800.361 1136.67 720 1136.67C639.639 1136.67 562.57 1123.5 505.747 1100.06C448.923 1076.61 417 1044.82 417 1011.67V428.333M417 720C417 753.152 448.923 784.946 505.747 808.388C562.57 831.83 639.639 845 720 845C800.361 845 877.43 831.83 934.253 808.388C991.077 784.946 1023 753.152 1023 720" stroke="url(#paint0_linear_60_2)" stroke-width="50" stroke-linecap="round" stroke-linejoin="round"/>
<rect x="671" y="910" width="530" height="269" fill="black"/>
<path d="M720.396 1166L754.083 963.091H809.169L795.695 1045.13H798.469L872.975 963.091H937.176L853.952 1053.45L905.075 1166H839.289L806.791 1089.91L784.202 1114.08L775.483 1166H720.396Z" fill="white"/>
<path d="M1009.01 963.091L1026.84 1106.16H1028.43L1093.82 963.091H1156.04L1055.37 1166H980.077L946.787 963.091H1009.01Z" fill="white"/>
<defs>
<linearGradient id="paint0_linear_60_2" x1="720" y1="303.333" x2="720" y2="1136.67" gradientUnits="userSpaceOnUse">
<stop offset="0.254808" stop-color="#FBAD41"/>
<stop offset="0.682692" stop-color="#F6821F"/>
</linearGradient>
</defs>
</svg>
